:FULLY-SPECIFIED
:FORCE-ALL-JOINTS-BE-3DOF
:DEGREES
611
root 5.86035 16.7326 -3.83223 -18.2323 47.4256 -26.3599
lfemur -16.798 22.3485 -23.3474
ltibia 38.5758 0 0
lfoot -35.2709 24.9037 0
ltoes 25.2701 0 0
rfemur -53.291 -17.6124 23.5553
rtibia 67.4021 0 0
rfoot 10.7111 26.1177 0
rtoes -12.6545 0 0
lowerback 3.43204 -3.35043 -3.71652
upperback -0.112562 -4.56888 1.59591
thorax -1.61908 -2.24064 3.90775
lowerneck -8.84598 -8.8473 -0.227379
upperneck 14.7927 -12.447 2.97912
head 6.17666 -5.80865 -0.0135681
lclavicle 9.4331e-14 1.07053e-14 0
lhumerus -24.6845 -41.6187 95.5517
lradius 59.2263 0 0
lwrist 20.5339 0 0
lhand -12.5424 -1.38798 0
lfingers 7.12502 0 0
lthumb 13.533 28.1264 0
rclavicle 9.4331e-14 1.07053e-14 0
rhumerus 21.2618 3.44162 -71.3188
rradius 114.008 0 0
rwrist -57.1165 0 0
rhand -29.0189 -25.6864 0
rfingers 7.12502 0 0
rthumb -2.36997 -775.65 0
612
root 5.82567 16.7435 -3.83915 -14.0811 46.6697 -22.2396
lfemur -16.7839 23.053 -23.4629
ltibia 38.383 0 0
lfoot -35.3433 25.3332 0
ltoes 25.8091 0 0
rfemur -53.3364 -17.7666 23.8338
rtibia 68.0236 0 0
rfoot 10.7392 26.7166 0
rtoes -12.1143 0 0
lowerback 3.33311 -3.42419 -3.76181
upperback -0.18471 -4.67116 1.53956
thorax -1.62904 -2.29135 3.87739
lowerneck -8.94612 -8.71679 -0.11963
upperneck 14.922 -12.2836 2.91836
head 6.21615 -5.72345 -0.0434539
lclavicle 9.67746e-14 1.12677e-14 0
lhumerus -24.2161 -42.3209 95.5899
lradius 59.333 0 0
lwrist 20.4867 0 0
lhand -12.2984 -1.30397 0
lfingers 7.12502 0 0
lthumb 13.7684 28.1992 0
rclavicle 9.67746e-14 1.12677e-14 0
rhumerus 21.0608 3.10673 -71.2462
rradius 113.455 0 0
rwrist -57.4359 0 0
rhand -29.102 -25.8008 0
rfingers 7.12502 0 0
rthumb -2.45022 -775.764 0
613
root 5.791 16.7544 -3.84608 -9.92997 45.9138 -18.1192
lfemur -16.7698 23.7575 -23.5784
ltibia 38.1903 0 0
lfoot -35.4157 25.7627 0
ltoes 26.3481 0 0
rfemur -53.3819 -17.9207 24.1123
rtibia 68.6452 0 0
rfoot 10.7674 27.3154 0
rtoes -11.5741 0 0
lowerback 3.23417 -3.49796 -3.80709
upperback -0.256857 -4.77344 1.48321
thorax -1.63899 -2.34206 3.84704
lowerneck -9.04626 -8.58628 -0.0118804
upperneck 15.0512 -12.1201 2.8576
head 6.25564 -5.63826 -0.0733397
lclavicle 9.92182e-14 1.18302e-14 0
lhumerus -23.7477 -43.023 95.6281
lradius 59.4398 0 0
lwrist 20.4394 0 0
lhand -12.0544 -1.21996 0
lfingers 7.12502 0 0
lthumb 14.0038 28.2719 0
rclavicle 9.92182e-14 1.18302e-14 0
rhumerus 20.8597 2.77183 -71.1736
rradius 112.902 0 0
rwrist -57.7552 0 0
rhand -29.1851 -25.9152 0
rfingers 7.12502 0 0
rthumb -2.53047 -775.878 0
614
root 5.75632 16.7653 -3.853 -5.77881 45.1579 -13.9988
lfemur -16.7557 24.4621 -23.6939
ltibia 37.9975 0 0
lfoot -35.4881 26.1923 0
ltoes 26.8871 0 0
rfemur -53.4273 -18.0749 24.3907
rtibia 69.2668 0 0
rfoot 10.7956 27.9143 0
rtoes -11.034 0 0
lowerback 3.13523 -3.57173 -3.85237
upperback -0.329005 -4.87572 1.42686
thorax -1.64894 -2.39277 3.81668
lowerneck -9.1464 -8.45577 0.0958691
upperneck 15.1805 -11.9567 2.79684
head 6.29512 -5.55307 -0.103225
lclavicle 1.01662e-13 1.23926e-14 0
lhumerus -23.2793 -43.7251 95.6663
lradius 59.5465 0 0
lwrist 20.3921 0 0
lhand -11.8104 -1.13595 0
lfingers 7.12502 0 0
lthumb 14.2391 28.3447 0
rclavicle 1.01662e-13 1.23926e-14 0
rhumerus 20.6587 2.43693 -71.1011
rradius 112.348 0 0
rwrist -58.0745 0 0
rhand -29.2682 -26.0296 0
rfingers 7.12502 0 0
rthumb -2.61071 -775.992 0
615
root 5.72164 16.7762 -3.85993 -1.62765 44.402 -9.87838
lfemur -16.7416 25.1666 -23.8094
ltibia 37.8047 0 0
lfoot -35.5605 26.6218 0
ltoes 27.4261 0 0
rfemur -53.4728 -18.229 24.6692
rtibia 69.8884 0 0
rfoot 10.8237 28.5131 0
rtoes -10.4938 0 0
lowerback 3.03629 -3.64549 -3.89765
upperback -0.401152 -4.978 1.37051
thorax -1.6589 -2.44349 3.78633
lowerneck -9.24653 -8.32526 0.203619
upperneck 15.3097 -11.7932 2.73608
head 6.33461 -5.46787 -0.133111
lclavicle 1.04105e-13 1.2955e-14 0
lhumerus -22.8109 -44.4273 95.7045
lradius 59.6533 0 0
lwrist 20.3448 0 0
lhand -11.5664 -1.05194 0
lfingers 7.12502 0 0
lthumb 14.4745 28.4174 0
rclavicle 1.04105e-13 1.2955e-14 0
rhumerus 20.4576 2.10204 -71.0285
rradius 111.795 0 0
rwrist -58.3939 0 0
rhand -29.3513 -26.144 0
rfingers 7.12502 0 0
rthumb -2.69096 -776.106 0
616
root 5.68696 16.7871 -3.86685 2.52351 43.6461 -5.75799
lfemur -16.7275 25.8711 -23.9249
ltibia 37.6119 0 0
lfoot -35.6329 27.0513 0
ltoes 27.9651 0 0
rfemur -53.5182 -18.3832 24.9477
rtibia 70.51 0 0
rfoot 10.8519 29.112 0
rtoes -9.95358 0 0
lowerback 2.93735 -3.71926 -3.94293
upperback -0.4733 -5.08028 1.31416
thorax -1.66885 -2.4942 3.75597
lowerneck -9.34667 -8.19475 0.311368
upperneck 15.439 -11.6298 2.67532
head 6.3741 -5.38268 -0.162997
lclavicle 1.06549e-13 1.35174e-14 0
lhumerus -22.3425 -45.1294 95.7427
lradius 59.76 0 0
lwrist 20.2975 0 0
lhand -11.3224 -0.967928 0
lfingers 7.12502 0 0
lthumb 14.7099 28.4902 0
rclavicle 1.06549e-13 1.35174e-14 0
rhumerus 20.2566 1.76714 -70.9559
rradius 111.242 0 0
rwrist -58.7132 0 0
rhand -29.4344 -26.2584 0
rfingers 7.12502 0 0
rthumb -2.77121 -776.22 0
617
root 5.68277 16.7703 -3.81921 2.88813 42.599 -5.56191
lfemur -16.6573 25.8306 -24.1024
ltibia 37.5615 0 0
lfoot -35.7102 26.7912 0
ltoes 27.7003 0 0
rfemur -53.7693 -18.7028 25.3015
rtibia 70.4991 0 0
rfoot 10.3286 28.1597 0
rtoes -9.5283 0 0
lowerback 2.86183 -3.7447 -4.00675
upperback -0.500325 -5.11259 1.26263
thorax -1.65064 -2.50987 3.73338
lowerneck -9.36122 -8.15386 0.286635
upperneck 15.1132 -11.5647 2.76502
head 6.28602 -5.35522 -0.118038
lclavicle 1.05856e-13 1.26059e-14 0
lhumerus -22.8268 -45.797 96.4874
lradius 60.1237 0 0
lwrist 20.4251 0 0
lhand -11.1398 -0.851429 0
lfingers 7.12502 0 0
lthumb 14.8856 28.5901 0
rclavicle 1.05856e-13 1.26059e-14 0
rhumerus 18.6109 1.47169 -70.9889
rradius 109.919 0 0
rwrist -57.698 0 0
rhand -29.4332 -26.8698 0
rfingers 7.12502 0 0
rthumb -2.77004 -776.831 0
618
root 5.67858 16.7535 -3.77157 3.25276 41.552 -5.36582
lfemur -16.5871 25.7902 -24.28
ltibia 37.5111 0 0
lfoot -35.7874 26.5311 0
ltoes 27.4354 0 0
rfemur -54.0205 -19.0223 25.6553
rtibia 70.4882 0 0
rfoot 9.80533 27.2075 0
rtoes -9.10302 0 0
lowerback 2.78631 -3.77013 -4.07056
upperback -0.52735 -5.1449 1.21109
thorax -1.63243 -2.52555 3.71079
lowerneck -9.37576 -8.11298 0.261903
upperneck 14.7874 -11.4995 2.85473
head 6.19795 -5.32776 -0.0730791
lclavicle 1.05162e-13 1.16944e-14 0
lhumerus -23.311 -46.4647 97.232
lradius 60.4874 0 0
lwrist 20.5527 0 0
lhand -10.9572 -0.734929 0
lfingers 7.12502 0 0
lthumb 15.0612 28.6901 0
rclavicle 1.05162e-13 1.16944e-14 0
rhumerus 16.9652 1.17624 -71.0218
rradius 108.595 0 0
rwrist -56.6828 0 0
rhand -29.432 -27.4812 0
rfingers 7.12502 0 0
rthumb -2.76887 -777.443 0
619
root 5.67439 16.7367 -3.72394 3.61738 40.5049 -5.16974
lfemur -16.5169 25.7497 -24.4575
ltibia 37.4607 0 0
lfoot -35.8647 26.271 0
ltoes 27.1706 0 0
rfemur -54.2716 -19.3419 26.0092
rtibia 70.4773 0 0
rfoot 9.28204 26.2552 0
rtoes -8.67774 0 0
lowerback 2.7108 -3.79557 -4.13438
upperback -0.554375 -5.1772 1.15956
thorax -1.61423 -2.54122 3.6882
lowerneck -9.39031 -8.07209 0.23717
upperneck 14.4616 -11.4344 2.94443
head 6.10987 -5.30031 -0.0281201
lclavicle 1.04469e-13 1.07829e-14 0
lhumerus -23.7953 -47.1323 97.9767
lradius 60.8511 0 0
lwrist 20.6804 0 0
lhand -10.7746 -0.61843 0
lfingers 7.12502 0 0
lthumb 15.2369 28.79 0
rclavicle 1.04469e-13 1.07829e-14 0
rhumerus 15.3196 0.880783 -71.0548
rradius 107.272 0 0
rwrist -55.6677 0 0
rhand -29.4308 -28.0926 0
rfingers 7.12502 0 0
rthumb -2.76769 -778.054 0
620
root 5.6702 16.7199 -3.6763 3.98201 39.4579 -4.97366
lfemur -16.4467 25.7092 -24.6351
ltibia 37.4102 0 0
lfoot -35.9419 26.0109 0
ltoes 26.9057 0 0
rfemur -54.5227 -19.6615 26.363
rtibia 70.4664 0 0
rfoot 8.75876 25.303 0
rtoes -8.25246 0 0
lowerback 2.63528 -3.821 -4.19819
upperback -0.5814 -5.20951 1.10802
thorax -1.59602 -2.55689 3.66562
lowerneck -9.40486 -8.0312 0.212438
upperneck 14.1358 -11.3693 3.03413
head 6.0218 -5.27285 0.0168388
lclavicle 1.03776e-13 9.87139e-15 0
lhumerus -24.2796 -47.8 98.7214
lradius 61.2147 0 0
lwrist 20.808 0 0
lhand -10.592 -0.50193 0
lfingers 7.12502 0 0
lthumb 15.4125 28.89 0
rclavicle 1.03776e-13 9.87139e-15 0
rhumerus 13.6739 0.585331 -71.0878
rradius 105.949 0 0
rwrist -54.6525 0 0
rhand -29.4295 -28.704 0
rfingers 7.12502 0 0
rthumb -2.76652 -778.666 0
621
root 5.66601 16.7031 -3.62866 4.34663 38.4108 -4.77757
lfemur -16.3765 25.6687 -24.8126
ltibia 37.3598 0 0
lfoot -36.0192 25.7508 0
ltoes 26.6409 0 0
rfemur -54.7739 -19.9811 26.7168
rtibia 70.4556 0 0
rfoot 8.23547 24.3507 0
rtoes -7.82718 0 0
lowerback 2.55976 -3.84644 -4.26201
upperback -0.608424 -5.24182 1.05649
thorax -1.57781 -2.57256 3.64303
lowerneck -9.41941 -7.99031 0.187705
upperneck 13.8099 -11.3042 3.12384
head 5.93372 -5.24539 0.0617978
lclavicle 1.03082e-13 8.95989e-15 0
lhumerus -24.7639 -48.4676 99.466
lradius 61.5784 0 0
lwrist 20.9356 0 0
lhand -10.4094 -0.385431 0
lfingers 7.12502 0 0
lthumb 15.5882 28.9899 0
rclavicle 1.03082e-13 8.95989e-15 0
rhumerus 12.0282 0.289879 -71.1207
rradius 104.625 0 0
rwrist -53.6373 0 0
rhand -29.4283 -29.3154 0
rfingers 7.12502 0 0
rthumb -2.76535 -779.277 0
622
root 5.66183 16.6863 -3.58102 4.71125 37.3638 -4.58149
lfemur -16.3063 25.6283 -24.9901
ltibia 37.3094 0 0
lfoot -36.0964 25.4907 0
ltoes 26.3761 0 0
rfemur -55.025 -20.3006 27.0706
rtibia 70.4447 0 0
rfoot 7.71219 23.3985 0
rtoes -7.40189 0 0
lowerback 2.48424 -3.87187 -4.32583
upperback -0.635449 -5.27413 1.00495
thorax -1.5596 -2.58824 3.62044
lowerneck -9.43395 -7.94943 0.162972
upperneck 13.4841 -11.239 3.21354
head 5.84565 -5.21793 0.106757
lclavicle 1.02389e-13 8.04839e-15 0
lhumerus -25.2481 -49.1353 100.211
lradius 61.9421 0 0
lwrist 21.0632 0 0
lhand -10.2268 -0.268931 0
lfingers 7.12502 0 0
lthumb 15.7638 29.0898 0
rclavicle 1.02389e-13 8.04839e-15 0
rhumerus 10.3825 -0.00557317 -71.1537
rradius 103.302 0 0
rwrist -52.6221 0 0
rhand -29.4271 -29.9267 0
rfingers 7.12502 0 0
rthumb -2.76418 -779.888 0
